# xmcd
# Track frame offsets:
# 150
# 15228
# 33382
# 57066
# 73075
# 98411
# 119753
# 145006
# 171586
# 192773
# 217796
#
# Disc length: 3094 seconds
# Revision: 0
# Processed by: cddbd v1.5.2PL0 Copyright (c) Steve Scherf et al.
# Submitted via: VisiTrax 2.11.3.279 - For more info visit www.synapsa.com
#
DISCID=900c140b
DTITLE=Sofie Reed - Baby Boo Got Gone
DYEAR=2003
DGENRE=Blues
TTITLE0=Take A step
TTITLE1=Phoenix Dragon Heat
TTITLE2=Box Of Prayers
TTITLE3=Owl
TTITLE4=Baby Boo Got Gone
TTITLE5=Cloned Fickled love
TTITLE6=Who s Got Their Soul
TTITLE7=Heartbraker s Post
TTITLE8=Fallen Star
TTITLE9=Pilot Car
TTITLE10=Funky Rattle
EXTD=
EXTT0=
EXTT1=
EXTT2=
EXTT3=
EXTT4=
EXTT5=
EXTT6=
EXTT7=
EXTT8=
EXTT9=
EXTT10=
PLAYORDER=
